<svg width="1000" height="1000" viewBox="0 0 1000 1000" fill="none" xmlns="http://www.w3.org/2000/svg">
<path d="M936.038 889.902L989.275 803.865H882.8L936.038 889.902Z" fill="#12302E"/>
<path d="M759.672 786.364L812.909 699.962H706.435L759.672 786.364Z" fill="#103C2C"/>
<path d="M699.55 681.734L752.788 595.332H646.313L699.55 681.734Z" fill="#1E695B"/>
<path d="M699.912 889.902L753.149 803.865H647.037L699.912 889.902Z" fill="#3B766C"/>
<path d="M519.555 994.532L572.792 908.13H466.318L519.555 994.532Z" fill="#1E695B"/>
<path d="M878.097 573.094L931.334 486.692H824.86L878.097 573.094Z" fill="#1E695B"/>
<path d="M700.274 703.974L647.037 790.375H753.149L700.274 703.974Z" fill="#1E695B"/>
<path d="M639.073 601.529L585.836 687.931H692.311L639.073 601.529Z" fill="#1E695B"/>
<path d="M759.302 603.353L706.065 689.755H812.54L759.302 603.353Z" fill="#163531"/>
<path d="M757.855 391.906L704.617 478.308H811.092L757.855 391.906Z" fill="#1E695B"/>
<path d="M817.613 496.17L764.376 582.207H870.488L817.613 496.17Z" fill="#12302E"/>
<path d="M463.063 495.44L409.825 581.841H516.3L463.063 495.44Z" fill="#1E695B"/>
<path d="M698.464 913.598L645.227 1000H751.701L698.464 913.598Z" fill="#163531"/>
<path d="M877.369 600.437L764.738 791.104H990L877.369 600.437Z" fill="#103C2C"/>
<path d="M581.483 705.066L468.49 895.733H694.114L581.483 705.066Z" fill="#163531"/>
<path d="M521.007 783.446L634 592.779H408.376L521.007 783.446Z" fill="#3B766C"/>
<path d="M847.311 629.601L869.765 593.145H824.857L847.311 629.601Z" fill="#1E695B"/>
<path d="M788.274 629.601L810.728 593.145H765.82L788.274 629.601Z" fill="#1E695B"/>
<path d="M816.166 682.463L838.982 646.006H793.713L816.166 682.463Z" fill="#1E695B"/>
<path d="M639.793 787.825L662.247 751.369H617.339L639.793 787.825Z" fill="#1E695B"/>
<path d="M671.66 733.139L694.114 696.683H649.207L671.66 733.139Z" fill="#1E695B"/>
<path d="M611.547 733.139L634 696.683H589.093L611.547 733.139Z" fill="#1E695B"/>
<path d="M638.706 994.893L661.16 958.437H616.253L638.706 994.893Z" fill="#1E695B"/>
<path d="M669.857 941.304L692.311 904.847H647.403L669.857 941.304Z" fill="#1E695B"/>
<path d="M610.459 941.304L633.275 904.847H588.006L610.459 941.304Z" fill="#1E695B"/>
<path d="M759.305 575.644L781.759 539.187H736.851L759.305 575.644Z" fill="#1E695B"/>
<path d="M787.913 526.429L810.367 489.608H765.459L787.913 526.429Z" fill="#1E695B"/>
<path d="M728.886 526.429L751.339 489.608H706.432L728.886 526.429Z" fill="#1E695B"/>
<path d="M879.179 475.39L901.632 438.934H856.363L879.179 475.39Z" fill="#1E695B"/>
<path d="M729.609 420.705L752.062 384.249H707.155L729.609 420.705Z" fill="#1E695B"/>
<path d="M817.978 599.708L795.162 636.164H840.432L817.978 599.708Z" fill="#3B766C"/>
<path d="M638.345 703.971L615.891 740.792H660.799L638.345 703.971Z" fill="#1E695B"/>
<path d="M640.155 909.951L617.701 946.772H662.608L640.155 909.951Z" fill="#1E695B"/>
<path d="M492.76 754.645L470.306 791.466H515.213L492.76 754.645Z" fill="#1E695B"/>
<path d="M758.219 492.161L735.765 528.618H780.672L758.219 492.161Z" fill="#1E695B"/>
<path d="M544.181 546.846L521.728 583.303H566.635L544.181 546.846Z" fill="#1E695B"/>
<path d="M847.673 440.027L824.857 476.484H870.126L847.673 440.027Z" fill="#163531"/>
<path d="M636.169 580.023L689.407 493.621H582.932L636.169 580.023Z" fill="#1E695B"/>
<path d="M459.44 476.486L512.677 390.084H406.203L459.44 476.486Z" fill="#1E695B"/>
<path d="M399.318 371.855L452.556 285.453H346.081L399.318 371.855Z" fill="#1E695B"/>
<path d="M400.043 580.023L453.281 493.621H346.806L400.043 580.023Z" fill="#1E695B"/>
<path d="M400.043 394.095L346.806 480.497H453.281L400.043 394.095Z" fill="#3B766C"/>
<path d="M457.992 82.0276L404.754 168.429H511.229L457.992 82.0276Z" fill="#1E695B"/>
<path d="M398.232 603.72L344.995 690.122H451.469L398.232 603.72Z" fill="#12302E"/>
<path d="M428.653 736.42L451.469 699.963H406.562L428.653 736.42Z" fill="#1E695B"/>
<path d="M547.441 319.723L569.895 283.266H524.625L547.441 319.723Z" fill="#1E695B"/>
<path d="M488.053 319.723L510.506 283.266H465.599L488.053 319.723Z" fill="#1E695B"/>
<path d="M516.299 372.584L538.752 336.128H493.845L516.299 372.584Z" fill="#1E695B"/>
<path d="M339.561 477.945L362.015 441.488H317.108L339.561 477.945Z" fill="#1E695B"/>
<path d="M371.8 423.26L394.254 386.804H348.984L371.8 423.26Z" fill="#1E695B"/>
<path d="M311.314 423.26L334.13 386.804H288.861L311.314 423.26Z" fill="#1E695B"/>
<path d="M338.474 685.015L361.29 648.558H316.02L338.474 685.015Z" fill="#1E695B"/>
<path d="M369.627 631.425L392.081 594.969H347.173L369.627 631.425Z" fill="#1E695B"/>
<path d="M310.59 631.425L333.044 594.969H288.136L310.59 631.425Z" fill="#1E695B"/>
<path d="M459.443 265.765L481.896 229.309H436.627L459.443 265.765Z" fill="#1E695B"/>
<path d="M428.653 216.187L451.469 179.731H406.199L428.653 216.187Z" fill="#1E695B"/>
<path d="M578.954 165.511L601.408 129.054H556.501L578.954 165.511Z" fill="#1E695B"/>
<path d="M429.379 110.827L451.833 74.3703H406.925L429.379 110.827Z" fill="#1E695B"/>
<path d="M517.747 289.829L495.293 326.286H540.201L517.747 289.829Z" fill="#1E695B"/>
<path d="M340.286 600.072L317.47 636.893H362.74L340.286 600.072Z" fill="#3B766C"/>
<path d="M192.528 444.767L170.074 481.588H214.982L192.528 444.767Z" fill="#1E695B"/>
<path d="M458.356 182.283L435.54 218.739H480.81L458.356 182.283Z" fill="#163531"/>
<path d="M547.441 130.149L524.987 166.605H569.895L547.441 130.149Z" fill="#1E695B"/>
<path d="M33.1749 67.8066L10.359 104.992H56.353L33.1749 67.8066Z" fill="#12302E"/>
<path d="M109.592 112.283L86.4141 149.833H132.408L109.592 112.283Z" fill="#103C2C"/>
<path d="M135.673 157.855L112.495 195.041H158.489L135.673 157.855Z" fill="#1E695B"/>
<path d="M135.312 67.8066L112.134 104.992H158.128L135.312 67.8066Z" fill="#3B766C"/>
<path d="M213.169 22.6015L190.354 59.7871H236.348L213.169 22.6015Z" fill="#1E695B"/>
<path d="M58.5317 204.882L35.3535 242.068H81.3477L58.5317 204.882Z" fill="#1E695B"/>
<path d="M135.312 148.01L158.128 110.824H112.134L135.312 148.01Z" fill="#1E695B"/>
<path d="M161.746 192.491L184.562 154.941H138.568L161.746 192.491Z" fill="#1E695B"/>
<path d="M109.591 191.395L132.77 154.21H86.7754L109.591 191.395Z" fill="#163531"/>
<path d="M110.317 282.901L133.133 245.716H87.1386L110.317 282.901Z" fill="#1E695B"/>
<path d="M84.6052 238.06L107.421 200.509H61.4271L84.6052 238.06Z" fill="#12302E"/>
<path d="M237.802 238.06L260.618 200.874H214.623L237.802 238.06Z" fill="#1E695B"/>
<path d="M136.027 57.5981L158.843 20.0481H112.849L136.027 57.5981Z" fill="#163531"/>
<path d="M58.5298 192.852L107.421 110.46H10.0006L58.5298 192.852Z" fill="#103C2C"/>
<path d="M186.37 147.649L235.261 65.2574H137.841L186.37 147.649Z" fill="#163531"/>
<path d="M212.451 113.745L163.922 196.136H261.343L212.451 113.745Z" fill="#3B766C"/>
<path d="M122.63 -2.67029e-05L113.214 16.0408H132.408L122.63 -2.67029e-05Z" fill="#1E695B"/>
<path d="M71.5693 180.093L61.7911 195.77H81.3477L71.5693 180.093Z" fill="#1E695B"/>
<path d="M97.2793 180.093L87.5011 195.77H107.058L97.2793 180.093Z" fill="#1E695B"/>
<path d="M84.9688 157.489L75.1905 173.165H94.7471L84.9688 157.489Z" fill="#1E695B"/>
<path d="M161.385 111.92L151.607 127.596H171.163L161.385 111.92Z" fill="#1E695B"/>
<path d="M147.625 135.254L137.847 151.294H157.041L147.625 135.254Z" fill="#1E695B"/>
<path d="M173.336 135.254L163.92 151.294H183.115L173.336 135.254Z" fill="#1E695B"/>
<path d="M161.747 22.2359L151.968 37.9121H171.525L161.747 22.2359Z" fill="#1E695B"/>
<path d="M148.35 45.5674L138.571 61.2437H158.128L148.35 45.5674Z" fill="#1E695B"/>
<path d="M174.06 45.5674L164.282 61.2437H183.476L174.06 45.5674Z" fill="#1E695B"/>
<path d="M109.6 203.422L99.8216 219.463H119.378L109.6 203.422Z" fill="#1E695B"/>
<path d="M97.2793 224.935L87.5011 240.612H107.058L97.2793 224.935Z" fill="#1E695B"/>
<path d="M122.63 224.935L113.214 240.612H132.408L122.63 224.935Z" fill="#1E695B"/>
<path d="M57.8067 246.807L48.0284 262.483H67.585L57.8067 246.807Z" fill="#1E695B"/>
<path d="M122.638 270.505L112.86 286.181H132.054L122.638 270.505Z" fill="#1E695B"/>
<path d="M84.2437 193.218L94.022 177.541H74.4654L84.2437 193.218Z" fill="#3B766C"/>
<path d="M162.109 148.01L171.525 132.334H152.331L162.109 148.01Z" fill="#1E695B"/>
<path d="M161.024 59.0605L170.802 43.3842H151.245L161.024 59.0605Z" fill="#1E695B"/>
<path d="M224.758 126.139L234.536 110.462H214.98L224.758 126.139Z" fill="#1E695B"/>
<path d="M109.956 239.517L119.734 223.841H100.177L109.956 239.517Z" fill="#1E695B"/>
<path d="M202.669 215.823L212.447 200.146H192.891L202.669 215.823Z" fill="#1E695B"/>
<path d="M71.5693 262.122L81.3477 246.446H61.7911L71.5693 262.122Z" fill="#163531"/>
<path d="M162.825 201.604L140.009 238.789H186.003L162.825 201.604Z" fill="#1E695B"/>
<path d="M239.243 246.445L216.065 283.631H262.421L239.243 246.445Z" fill="#1E695B"/>
<path d="M265.325 291.648L242.146 328.834H288.141L265.325 291.648Z" fill="#1E695B"/>
<path d="M264.961 201.604L241.783 238.789H287.777L264.961 201.604Z" fill="#1E695B"/>
<path d="M264.961 281.808L287.777 244.622H241.783L264.961 281.808Z" fill="#3B766C"/>
<path d="M239.967 417.062L262.783 379.511H216.789L239.967 417.062Z" fill="#1E695B"/>
<path d="M265.686 191.397L288.502 154.212H242.871L265.686 191.397Z" fill="#12302E"/>
<path d="M252.281 134.158L242.865 149.834H262.06L252.281 134.158Z" fill="#1E695B"/>
<path d="M201.219 314.253L191.441 329.93H210.998L201.219 314.253Z" fill="#1E695B"/>
<path d="M226.931 314.253L217.153 329.93H236.709L226.931 314.253Z" fill="#1E695B"/>
<path d="M214.618 291.288L204.84 306.964H224.396L214.618 291.288Z" fill="#1E695B"/>
<path d="M291.037 245.713L281.258 261.389H300.815L291.037 245.713Z" fill="#1E695B"/>
<path d="M277.268 269.411L267.49 285.088H287.047L277.268 269.411Z" fill="#1E695B"/>
<path d="M303.348 269.411L293.57 285.088H312.764L303.348 269.411Z" fill="#1E695B"/>
<path d="M291.398 156.03L281.62 172.071H301.177L291.398 156.03Z" fill="#1E695B"/>
<path d="M277.999 179.363L268.221 195.404H287.777L277.999 179.363Z" fill="#1E695B"/>
<path d="M303.711 179.363L293.933 195.404H313.489L303.711 179.363Z" fill="#1E695B"/>
<path d="M239.244 337.586L229.465 353.262H249.022L239.244 337.586Z" fill="#1E695B"/>
<path d="M252.281 358.731L242.865 374.771H262.06L252.281 358.731Z" fill="#1E695B"/>
<path d="M187.459 380.966L178.042 396.642H197.237L187.459 380.966Z" fill="#1E695B"/>
<path d="M252.281 404.3L242.503 420.341H262.06L252.281 404.3Z" fill="#1E695B"/>
<path d="M213.896 327.012L223.674 311.335H204.479L213.896 327.012Z" fill="#1E695B"/>
<path d="M290.675 192.854L300.454 177.177H280.897L290.675 192.854Z" fill="#3B766C"/>
<path d="M354.41 259.933L364.188 244.256H344.994L354.41 259.933Z" fill="#1E695B"/>
<path d="M239.968 373.676L249.384 357.635H230.189L239.968 373.676Z" fill="#163531"/>
<path d="M332.319 349.982L342.097 334.306H322.541L332.319 349.982Z" fill="#1E695B"/>
<path d="M201.219 396.279L210.998 380.238H191.441L201.219 396.279Z" fill="#1E695B"/>
</svg>
