<svg width="24" height="24" viewBox="0 0 24 24" fill="none" xmlns="http://www.w3.org/2000/svg">
<circle cx="12" cy="12" r="12" fill="#292B28"/>
<path fill-rule="evenodd" clip-rule="evenodd" d="M5.33316 2.02236C7.30655 0.703788 9.62663 0 12 0C15.1826 0 18.2348 1.26428 20.4853 3.51472C22.7357 5.76515 24 8.8174 24 12C24 14.3734 23.2962 16.6935 21.9776 18.6668C20.6591 20.6402 18.7849 22.1783 16.5922 23.0865C14.3995 23.9948 11.9867 24.2324 9.65892 23.7694C7.33115 23.3064 5.19295 22.1635 3.51472 20.4853C1.83649 18.807 0.693605 16.6689 0.230582 14.3411C-0.232441 12.0133 0.00519943 9.60051 0.913451 7.4078C1.8217 5.21509 3.35977 3.34094 5.33316 2.02236ZM6.28557 20.5523C7.97704 21.6825 9.96568 22.2857 12 22.2857C14.7279 22.2857 17.3442 21.202 19.2731 19.2731C21.202 17.3441 22.2857 14.7279 22.2857 12C22.2857 9.96568 21.6825 7.97704 20.5523 6.28556C19.4221 4.59409 17.8156 3.27574 15.9362 2.49724C14.0567 1.71874 11.9886 1.51505 9.99336 1.91192C7.99813 2.3088 6.16539 3.28842 4.72691 4.7269C3.28842 6.16538 2.3088 7.99812 1.91193 9.99336C1.51505 11.9886 1.71874 14.0567 2.49724 15.9362C3.27575 17.8156 4.59409 19.422 6.28557 20.5523ZM7.23797 4.87312C8.64754 3.93128 10.3047 3.42857 12 3.42857C14.2733 3.42857 16.4535 4.33163 18.0609 5.93908C19.6684 7.54654 20.5714 9.72671 20.5714 12C20.5714 13.6953 20.0687 15.3525 19.1269 16.762C18.185 18.1716 16.8464 19.2702 15.2801 19.919C13.7139 20.5677 11.9905 20.7375 10.3278 20.4067C8.66511 20.076 7.13782 19.2596 5.93909 18.0609C4.74035 16.8622 3.924 15.3349 3.59327 13.6722C3.26254 12.0095 3.43228 10.2861 4.08104 8.71986C4.72979 7.15363 5.82841 5.81496 7.23797 4.87312ZM11.3939 7.96534C11.2332 8.12608 11.1429 8.3441 11.1429 8.57143V10.2857C11.1429 10.513 11.2332 10.7311 11.3939 10.8918C11.5547 11.0525 11.7727 11.1429 12 11.1429C12.2273 11.1429 12.4453 11.0525 12.6061 10.8918C12.7668 10.7311 12.8571 10.513 12.8571 10.2857V8.57143C12.8571 8.3441 12.7668 8.12608 12.6061 7.96534C12.4453 7.80459 12.2273 7.71428 12 7.71428C11.7727 7.71428 11.5547 7.80459 11.3939 7.96534ZM8.57143 12.8571H10.2857C10.513 12.8571 10.7311 12.7668 10.8918 12.6061C11.0526 12.4453 11.1429 12.2273 11.1429 12C11.1429 11.7727 11.0526 11.5547 10.8918 11.3939C10.7311 11.2332 10.513 11.1429 10.2857 11.1429H8.57143C8.3441 11.1429 8.12608 11.2332 7.96534 11.3939C7.80459 11.5547 7.71429 11.7727 7.71429 12C7.71429 12.2273 7.80459 12.4453 7.96534 12.6061C8.12608 12.7668 8.3441 12.8571 8.57143 12.8571ZM12.6061 16.0347C12.7668 15.8739 12.8571 15.6559 12.8571 15.4286V13.7143C12.8571 13.487 12.7668 13.2689 12.6061 13.1082C12.4453 12.9474 12.2273 12.8571 12 12.8571C11.7727 12.8571 11.5547 12.9474 11.3939 13.1082C11.2332 13.2689 11.1429 13.487 11.1429 13.7143V15.4286C11.1429 15.6559 11.2332 15.8739 11.3939 16.0347C11.5547 16.1954 11.7727 16.2857 12 16.2857C12.2273 16.2857 12.4453 16.1954 12.6061 16.0347ZM13.7143 12.8571H15.4286C15.6559 12.8571 15.8739 12.7668 16.0347 12.6061C16.1954 12.4453 16.2857 12.2273 16.2857 12C16.2857 11.7727 16.1954 11.5547 16.0347 11.3939C15.8739 11.2332 15.6559 11.1429 15.4286 11.1429H13.7143C13.487 11.1429 13.2689 11.2332 13.1082 11.3939C12.9474 11.5547 12.8571 11.7727 12.8571 12C12.8571 12.2273 12.9474 12.4453 13.1082 12.6061C13.2689 12.7668 13.487 12.8571 13.7143 12.8571Z" fill="#7D857B"/>
</svg>
