<svg width="324" height="256" viewBox="0 0 324 256" fill="none" xmlns="http://www.w3.org/2000/svg">
<path d="M140.523 190.043C139.398 189.509 138.3 188.894 137.256 188.239L140.951 182.41C142.598 183.453 144.419 184.308 146.266 184.937L144.057 191.474C142.866 191.073 141.674 190.591 140.536 190.043H140.523ZM131.405 183.466C129.665 181.648 128.138 179.629 126.88 177.437L132.878 174.001C133.855 175.699 135.047 177.277 136.399 178.694L131.405 183.466ZM151.434 192.984L151.997 186.113C153.951 186.273 155.919 186.193 157.861 185.886L158.958 192.704C156.468 193.105 153.938 193.212 151.421 192.998L151.434 192.984ZM123.948 170.499C123.252 168.079 122.837 165.579 122.743 163.08L129.651 162.799C129.732 164.751 130.053 166.702 130.588 168.587L123.948 170.499ZM166.215 190.605L163.524 184.255C165.331 183.493 167.045 182.504 168.625 181.341L172.762 186.875C170.74 188.372 168.545 189.642 166.215 190.618V190.605ZM123.359 155.567C123.867 153.12 124.671 150.714 125.755 148.428L131.994 151.382C131.151 153.16 130.521 155.032 130.12 156.944L123.345 155.553L123.359 155.567ZM178.198 181.648L172.735 177.21C173.967 175.699 174.904 173.975 175.761 172.197L176.042 171.595L182.495 174.67L182.214 175.271C181.13 177.544 179.791 179.696 178.198 181.635V181.648ZM135.14 146.436L129.785 142.078C131.378 140.126 133.213 138.375 135.234 136.864L139.385 142.386C137.805 143.562 136.386 144.925 135.154 146.436H135.14ZM177.93 166.676C178.318 164.751 178.479 162.785 178.398 160.834L185.307 160.54C185.414 163.053 185.213 165.579 184.704 168.053L177.93 166.676ZM144.472 139.444L141.768 133.095C144.084 132.105 146.521 131.397 149.011 130.996L150.122 137.8C148.181 138.121 146.28 138.656 144.472 139.431V139.444ZM177.435 155.045C176.886 153.16 176.109 151.342 175.132 149.644L181.116 146.195C182.375 148.374 183.366 150.701 184.075 153.12L177.435 155.045ZM155.986 137.573L156.535 130.702C159.052 130.902 161.529 131.41 163.926 132.212L161.73 138.763C159.869 138.134 157.941 137.747 155.986 137.586V137.573ZM171.611 144.966C170.258 143.549 168.719 142.319 167.058 141.263L170.74 135.421C172.882 136.771 174.851 138.362 176.591 140.18L171.611 144.966Z" fill="#535353"/>
<path d="M142.009 186.928C128.165 180.324 122.274 163.707 128.888 149.871C135.502 136.035 152.144 130.166 166.001 136.77C179.844 143.374 185.735 159.991 179.121 173.827C172.508 187.65 155.866 193.532 142.009 186.928ZM160.779 147.679C152.947 143.949 143.548 147.264 139.8 155.085C136.064 162.905 139.385 172.303 147.217 176.033C155.049 179.763 164.461 176.447 168.196 168.627C171.932 160.806 168.611 151.409 160.779 147.679Z" fill="#535353"/>
<path d="M218.269 154.523C216.837 153.842 215.431 153.066 214.092 152.224L218.805 144.778C220.907 146.101 223.223 147.211 225.579 148L222.768 156.341C221.241 155.833 219.728 155.218 218.269 154.523ZM206.648 146.141C204.425 143.829 202.484 141.235 200.878 138.455L208.522 134.07C209.781 136.236 211.28 138.254 213.007 140.059L206.648 146.155V146.141ZM232.193 158.293L232.916 149.524C235.406 149.724 237.923 149.631 240.4 149.229L241.806 157.919C238.633 158.427 235.393 158.561 232.193 158.293ZM197.129 129.618C196.232 126.53 195.723 123.349 195.589 120.14L204.399 119.779C204.506 122.279 204.907 124.766 205.604 127.159L197.129 129.605V129.618ZM251.044 155.259L247.603 147.157C249.919 146.182 252.102 144.925 254.11 143.441L259.385 150.499C256.814 152.424 254.003 154.029 251.044 155.272V155.259ZM196.366 110.569C197.008 107.44 198.039 104.379 199.418 101.465L207.384 105.248C206.3 107.521 205.497 109.913 205.001 112.347L196.366 110.569ZM266.347 143.855L259.88 138.441C261.46 136.516 263.16 134.551 264.245 132.292L264.553 131.65L271.823 135.113L271.515 135.754C270.122 138.655 268.382 141.382 266.36 143.855H266.347ZM211.374 98.9248L204.546 93.3636C206.581 90.8771 208.911 88.6313 211.495 86.7062L216.783 93.7513C214.775 95.2485 212.954 96.9998 211.374 98.9248ZM265.945 124.739C266.441 122.292 266.642 119.779 266.534 117.293L275.344 116.918C275.478 120.127 275.223 123.349 274.581 126.49L265.945 124.739ZM223.263 90.0082L219.809 81.907C222.768 80.6504 225.874 79.7547 229.033 79.2334L230.453 87.9227C227.989 88.3238 225.552 89.0323 223.25 90.0082H223.263ZM265.316 109.9C264.62 107.494 263.629 105.181 262.371 103.015L270.002 98.6173C271.609 101.398 272.881 104.366 273.778 107.44L265.316 109.9ZM237.95 87.6153L238.66 78.8457C241.86 79.0997 245.033 79.7547 248.085 80.7707L245.287 89.1125C242.917 88.3104 240.44 87.8158 237.95 87.6153ZM257.872 97.0399C256.145 95.2352 254.19 93.6577 252.062 92.3209L256.761 84.8748C259.492 86.5859 261.996 88.6313 264.232 90.944L257.872 97.0532V97.0399Z" fill="#535353"/>
<path d="M220.171 150.553C202.511 142.131 195 120.929 203.435 103.283C211.87 85.6371 233.104 78.1509 250.776 86.5729C268.449 94.9949 275.947 116.197 267.512 133.843C259.077 151.489 237.843 158.975 220.171 150.553ZM246.974 94.5136C233.693 88.1771 217.734 93.8185 211.388 107.08C205.042 120.341 210.692 136.289 223.973 142.613C237.254 148.949 253.213 143.308 259.559 130.046C265.905 116.785 260.255 100.85 246.974 94.5136Z" fill="#535353"/>
<path d="M121.203 110.809C119.101 109.807 117.053 108.67 115.098 107.441L121.993 96.5588C125.073 98.4972 128.46 100.115 131.914 101.278L127.79 113.483C125.555 112.734 123.345 111.839 121.203 110.809ZM104.187 98.5373C100.933 95.1418 98.0949 91.3585 95.7385 87.2812L106.931 80.8645C108.765 84.0461 110.975 87.0005 113.505 89.6341L104.187 98.5507V98.5373ZM141.58 116.317L142.638 103.47C146.28 103.778 149.962 103.631 153.59 103.042L155.652 115.756C151.006 116.504 146.266 116.691 141.58 116.304V116.317ZM90.2493 74.3408C88.9372 69.8223 88.1874 65.1568 88 60.4646L100.893 59.9432C101.04 63.5927 101.629 67.2422 102.66 70.7581L90.2626 74.3408H90.2493ZM169.174 111.879L164.153 100.008C167.541 98.5774 170.74 96.7459 173.673 94.5536L181.398 104.874C177.636 107.681 173.525 110.034 169.187 111.865L169.174 111.879ZM89.138 46.4546C90.0886 41.8693 91.5881 37.391 93.6097 33.1265L105.271 38.661C103.691 41.9896 102.513 45.4788 101.777 49.0481L89.138 46.4546ZM191.693 95.222L181.545 86.9738C183.861 84.1531 185.655 80.9581 187.248 77.6427L187.516 77.0813L199.633 82.8564L199.365 83.4178C197.33 87.6689 194.666 91.5992 191.707 95.222H191.693ZM111.122 29.3968L101.121 21.2555C104.093 17.6193 107.52 14.3308 111.282 11.5101L119.021 21.817C116.089 24.0094 113.425 26.5627 111.108 29.3968H111.122ZM191.011 67.1888C191.747 63.6061 192.028 59.9298 191.881 56.2803L204.774 55.7322C204.975 60.4244 204.6 65.1434 203.663 69.7555L191.011 67.1888ZM128.54 16.3494L123.493 4.49173C127.817 2.64691 132.369 1.33682 137.002 0.574835L139.09 13.288C135.475 13.8762 131.927 14.9056 128.554 16.336L128.54 16.3494ZM190.1 45.4788C189.069 41.9629 187.623 38.5674 185.789 35.3991L196.968 28.9556C199.311 33.0196 201.172 37.3642 202.484 41.8827L190.1 45.4788ZM150.042 12.8469L151.073 0C155.759 0.374311 160.405 1.32346 164.876 2.8207L160.779 15.0393C157.299 13.8762 153.684 13.141 150.042 12.8469ZM179.202 26.6429C176.672 24.0094 173.806 21.6833 170.7 19.7315L177.582 8.82304C181.572 11.3363 185.254 14.3174 188.507 17.6996L179.202 26.6295V26.6429Z" fill="#535353"/>
<path d="M123.988 104.994C98.1215 92.6551 87.1296 61.6274 99.4872 35.8C111.831 9.97251 142.919 -1.00282 168.786 11.3361C194.652 23.6616 205.644 54.7026 193.286 80.5301C180.942 106.344 149.854 117.333 123.988 104.994ZM163.216 22.9664C143.776 13.7022 120.4 21.9504 111.122 41.3611C101.844 60.7718 110.104 84.0994 129.544 93.377C148.984 102.641 172.347 94.393 181.639 74.9823C190.917 55.5716 182.656 32.2306 163.216 22.9664Z" fill="#535353"/>
<g style="mix-blend-mode:multiply" opacity="0.2">
<path d="M324 230.201C324 235.615 251.475 240 162 240C72.525 240 -0.00012207 235.615 -0.00012207 230.201C-0.00012207 224.787 72.525 220.402 162 220.402C251.475 220.402 324 224.787 324 230.201Z" fill="#C17E40"/>
</g>
<path d="M52.2146 64.8755H37.4873V223.958H52.2146V64.8755Z" fill="#F1EDE9"/>
<path d="M56.0819 64.449C61.9692 58.5706 61.9691 49.0398 56.0819 43.1614C50.1946 37.2829 40.6494 37.2829 34.7621 43.1614C28.8748 49.0398 28.8748 58.5706 34.7621 64.449C40.6494 70.3274 50.1946 70.3274 56.0819 64.449Z" fill="#F1EDE9"/>
<path d="M45.4266 63.7794C50.9427 63.7794 55.4144 59.3145 55.4144 53.8067C55.4144 48.2989 50.9427 43.834 45.4266 43.834C39.9105 43.834 35.4388 48.2989 35.4388 53.8067C35.4388 59.3145 39.9105 63.7794 45.4266 63.7794Z" fill="#FCCC20"/>
<path d="M56.231 217.273H32.1318V230.642H56.231V217.273Z" fill="#F1EDE9"/>
<g style="mix-blend-mode:soft-light">
<path d="M40.339 54.0469L46.8592 47.5366" stroke="#F1EDE9" stroke-miterlimit="10"/>
<path d="M42.6686 56.387L49.2021 49.8633" stroke="#F1EDE9" stroke-miterlimit="10"/>
<path d="M45.0116 58.7263L51.5452 52.2026" stroke="#F1EDE9" stroke-miterlimit="10"/>
</g>
<path d="M203.504 64.875H188.777V223.957H203.504V64.875Z" fill="#F1EDE9"/>
<path d="M196.792 68.866C205.115 68.6684 211.703 61.7708 211.506 53.4598C211.308 45.1487 204.401 38.5715 196.077 38.7692C187.754 38.9668 181.166 45.8643 181.363 54.1754C181.561 62.4864 188.468 69.0636 196.792 68.866Z" fill="#F1EDE9"/>
<path d="M196.448 63.7789C201.964 63.7789 206.436 59.314 206.436 53.8062C206.436 48.2984 201.964 43.8335 196.448 43.8335C190.932 43.8335 186.461 48.2984 186.461 53.8062C186.461 59.314 190.932 63.7789 196.448 63.7789Z" fill="#FCCC20"/>
<path d="M207.521 217.272H183.421V230.641H207.521V217.272Z" fill="#F1EDE9"/>
<g style="mix-blend-mode:soft-light">
<path d="M191.347 54.0469L197.881 47.5366" stroke="#F1EDE9" stroke-miterlimit="10"/>
<path d="M193.69 56.387L200.21 49.8633" stroke="#F1EDE9" stroke-miterlimit="10"/>
<path d="M196.033 58.7263L202.553 52.2026" stroke="#F1EDE9" stroke-miterlimit="10"/>
</g>
<path d="M216.892 76.9072H14.7272V117.012H216.892V76.9072Z" fill="#F1EDE9"/>
<mask id="mask0_1222_1689" style="mask-type:luminance" maskUnits="userSpaceOnUse" x="14" y="76" width="203" height="42">
<path d="M216.892 76.9072H14.7272V117.012H216.892V76.9072Z" fill="white"/>
</mask>
<g mask="url(#mask0_1222_1689)">
<path d="M56.948 64.2335L-8.45032 129.533L2.31372 140.281L67.7121 74.9813L56.948 64.2335Z" fill="#C17E40"/>
<path d="M115.475 64.2398L50.0769 129.54L60.8409 140.287L126.239 74.9876L115.475 64.2398Z" fill="#C17E40"/>
<path d="M174.016 64.2471L108.617 129.547L119.381 140.295L184.78 74.9949L174.016 64.2471Z" fill="#C17E40"/>
<path d="M232.538 64.2094L167.151 129.521L177.917 140.266L243.304 74.9553L232.538 64.2094Z" fill="#C17E40"/>
</g>
<path d="M216.892 149.096H14.7272V187.864H216.892V149.096Z" fill="#F1EDE9"/>
<mask id="mask1_1222_1689" style="mask-type:luminance" maskUnits="userSpaceOnUse" x="14" y="149" width="203" height="39">
<path d="M216.892 149.096H14.7272V187.864H216.892V149.096Z" fill="white"/>
</mask>
<g mask="url(#mask1_1222_1689)">
<path d="M56.9576 135.523L-8.4408 200.822L2.32323 211.57L67.7216 146.27L56.9576 135.523Z" fill="#C17E40"/>
<path d="M115.485 135.517L50.0863 200.816L60.8503 211.564L126.249 146.264L115.485 135.517Z" fill="#C17E40"/>
<path d="M174.012 135.523L108.614 200.823L119.378 211.571L184.776 146.271L174.012 135.523Z" fill="#C17E40"/>
<path d="M232.552 135.544L167.154 200.844L177.918 211.592L243.316 146.292L232.552 135.544Z" fill="#C17E40"/>
</g>
<g style="mix-blend-mode:multiply" opacity="0.2">
<path d="M216.892 107.654H14.7272V117.012H216.892V107.654Z" fill="#C17E40"/>
</g>
<g style="mix-blend-mode:multiply" opacity="0.2">
<path d="M216.892 178.506H14.7272V187.864H216.892V178.506Z" fill="#C17E40"/>
</g>
<path d="M295.349 222.943L274.476 140.06H261.556L240.684 222.943H230.281V230.964H303.917V222.943H295.349Z" fill="#F1EDE9"/>
<mask id="mask2_1222_1689" style="mask-type:luminance" maskUnits="userSpaceOnUse" x="230" y="140" width="74" height="91">
<path d="M295.349 222.943L274.476 140.06H261.556L240.684 222.943H230.281V230.964H303.917V222.943H295.349Z" fill="white"/>
</mask>
<g mask="url(#mask2_1222_1689)">
<path d="M294.546 138.723H245.008V152.091H294.546V138.723Z" fill="#C17E40"/>
<path d="M294.546 164.123H245.008V176.154H294.546V164.123Z" fill="#C17E40"/>
<path d="M298.562 189.522H239.653V201.554H298.562V189.522Z" fill="#C17E40"/>
<path d="M317.306 214.922H223.587V238.985H317.306V214.922Z" fill="#C17E40"/>
</g>
<path d="M209.572 223.173L188.241 140.273L175.343 140.331L154.967 223.429L145.687 223.471L145.74 231.499L219.277 231.159L219.237 223.127L209.572 223.173Z" fill="#F1EDE9"/>
<mask id="mask3_1222_1689" style="mask-type:luminance" maskUnits="userSpaceOnUse" x="145" y="140" width="75" height="92">
<path d="M209.572 223.173L188.241 140.273L175.343 140.331L154.967 223.429L145.687 223.471L145.74 231.499L219.277 231.159L219.237 223.127L209.572 223.173Z" fill="white"/>
</mask>
<g mask="url(#mask3_1222_1689)">
<path d="M159.994 152.447L209.465 152.215L209.389 138.829L159.918 139.062L159.994 152.447Z" fill="#C17E40"/>
<path d="M160.143 176.543L209.614 176.31L209.545 164.263L160.074 164.495L160.143 176.543Z" fill="#C17E40"/>
<path d="M154.927 201.999L213.757 201.722L213.689 189.675L154.858 189.952L154.927 201.999Z" fill="#C17E40"/>
<path d="M139.089 239.573L232.683 239.133L232.546 215.039L138.951 215.479L139.089 239.573Z" fill="#C17E40"/>
</g>
</svg>
